<svg xmlns="http://www.w3.org/2000/svg" id="Capa_1" height="512" viewBox="0 0 345.31 345.31" width="512"><g><path d="m233.14 89.976c-12.403-1.973-25.073-1.485-37.288 1.436 7.708-22.161 28.577-37.032 52.04-37.084 11.073.156 20.177-8.693 20.333-19.767s-8.693-20.177-19.767-20.333c-.189-.003-.378-.003-.566 0-28.479.125-55.411 12.976-73.424 35.036-7.483-33.867-41.004-55.255-74.87-47.771-3.59.793-7.102 1.899-10.498 3.307-2.32.952-3.953 3.073-4.28 5.56-4.627 34.373 19.488 65.989 53.861 70.616 6.171.831 12.431.739 18.575-.272-1.291 3.928-2.322 7.936-3.084 12-13.62-4.035-27.972-4.968-42-2.732-58.324 9.052-92.576 62.368-83.292 129.656 6.024 43.656 28.936 85.048 59.8 108 26.4 19.652 56.828 23.964 83.976 7.648 27.6 16.592 58.112 11.6 83.976-7.648 30.864-22.948 53.796-64.344 59.796-108 9.288-67.288-24.96-120.604-83.288-129.652zm-115.792-32.496c-12.654-9.799-19.748-25.144-19.016-41.132 25.73-8.184 53.222 6.041 61.406 31.771 1.765 5.55 2.525 11.372 2.242 17.189-15.265 4.809-31.915 1.889-44.632-7.828zm50.168 40.34c5.984-39.835 40.095-69.373 80.376-69.6 3.341-.086 6.12 2.553 6.206 5.894s-2.553 6.12-5.894 6.206c-.104.003-.207.003-.311 0-33.278.058-61.812 23.774-67.956 56.48h-.037c-2.452 1.1-4.872 2.3-7.244 3.624-.116-.044-3.98-2.056-5.14-2.604zm135.048 119.892c-5.448 39.464-26.756 78.208-54.288 98.704-22.572 16.8-48.356 20.748-71.664 4.8-2.385-1.632-5.527-1.632-7.912 0-23.312 15.964-49.084 12.02-71.664-4.8-27.532-20.496-48.84-59.236-54.288-98.704-8.176-59.256 21.256-106.096 71.572-113.9 18.91-3.112 38.308.686 54.648 10.7 2.258 1.4 5.114 1.4 7.372 0 16.324-10.059 35.74-13.861 54.652-10.7 50.32 7.804 79.748 54.644 71.572 113.9z"></path></g></svg>