<svg xmlns="http://www.w3.org/2000/svg" xmlns:xlink="http://www.w3.org/1999/xlink" id="Capa_1" x="0px" y="0px" viewBox="0 0 512 512" style="enable-background:new 0 0 512 512;" xml:space="preserve">
<g>
	<path d="M167.7,511.7H93.8c-16.4,0-29.7-13.3-29.7-29.7v-73.9c0-8.4,3.3-16.1,9.3-21.7c5.5-5.1,13-8.1,20.5-8.1c0,0,0,0,0,0   c5.5,0,10.9,1.5,15.5,4.4l14.6-14.6c11.5-11.5,24.9-20.4,39.9-26.6c13.2-5.5,27.1-8.6,41.4-9.2c0.5-0.1,1.1-0.1,1.6-0.1h71.7   c4.7,0,8.5-3.8,8.5-8.5s-3.8-8.5-8.5-8.5h-67.6c-57.5,0-104.2-46.7-104.2-104.2v-45.1c0-57.5,46.7-104.2,104.2-104.2h90.4   c1.2,0,2.2-0.5,3.1-1.4l14.6-14.6c-5-8-5.9-17.9-2.1-27C321.5,7.4,332,0.3,344.3,0.3h73.9c16.4,0,29.7,13.3,29.7,29.7v73.9   c0,8.4-3.3,16.1-9.3,21.7c-5.5,5.1-13,8.1-20.5,8.1c-5.5,0-10.9-1.5-15.5-4.4L388,143.8c-11.5,11.5-24.9,20.4-39.9,26.6   c-15,6.2-30.8,9.4-47,9.4l-4,0h-63.6c-4.7,0-8.5,3.8-8.5,8.5c0,4.7,3.8,8.5,8.5,8.5h67.6c57.5,0,104.2,46.7,104.2,104.2v45.1   c0,57.5-46.7,104.2-104.2,104.2h-83.4c-0.1,0-0.2,0-0.3,0h-4.2c-2.8,0-5.4,1.1-7.3,3l-12.9,12.9c5,8,5.9,17.9,2.1,27   C190.5,504.6,180,511.7,167.7,511.7z M94,398.3c-2.5,0-5,1-6.9,2.7c-2,1.8-3,4.3-3,7.1v73.9c0,5.4,4.4,9.7,9.7,9.7h73.9   c4.1,0,7.4-2.2,9-6c1.6-3.8,0.8-7.7-2.1-10.6l-2.2-2.2c-3.9-3.9-3.9-10.2,0-14.1l19.4-19.4c5.7-5.7,13.3-8.9,21.4-8.9h3.8   c0.1,0,0.2,0,0.3,0h83.7c46.4,0,84.2-37.8,84.2-84.2v-45.1c0-46.4-37.8-84.2-84.2-84.2h-67.6c-15.7,0-28.5-12.8-28.5-28.5   s12.8-28.5,28.5-28.5l67.7,0c13.6,0,26.8-2.6,39.4-7.8c12.5-5.2,23.8-12.7,33.4-22.3l21.1-21.1c3.9-3.9,10.2-3.9,14.1,0l2.2,2.2   c1.9,1.9,4.3,2.9,6.8,2.9c2.5,0,5-1,6.9-2.7c2-1.8,3-4.3,3-7.1V30.1c0-5.4-4.4-9.7-9.7-9.7h-73.9c-4.1,0-7.4,2.2-9,6   c-1.6,3.8-0.8,7.7,2.1,10.6l2.2,2.2c1.9,1.9,2.9,4.4,2.9,7.1c0,2.7-1.1,5.2-2.9,7.1l-21.1,21.1c-4.5,4.5-10.5,7.1-16.8,7.2   c-0.1,0-0.2,0-0.2,0h-90.5c-46.4,0-84.2,37.8-84.2,84.2v45.1c0,46.4,37.8,84.2,84.2,84.2h67.6c15.7,0,28.5,12.8,28.5,28.5   s-12.8,28.5-28.5,28.5h-70.4c-0.3,0-0.6,0.1-0.9,0.1c-12.3,0.4-24.3,3-35.7,7.8c-12.5,5.2-23.8,12.7-33.4,22.3l-21.1,21.1   c-1.9,1.9-4.4,2.9-7.1,2.9l0,0c-2.7,0-5.2-1.1-7.1-2.9l-2.2-2.2C98.9,399.3,96.5,398.3,94,398.3C94,398.3,94,398.3,94,398.3z"></path>
</g>
</svg>