<svg xmlns="http://www.w3.org/2000/svg" viewBox="0 0 1124.63 168.83"><defs><style>.cls-1{fill:#0062ff;}</style></defs><g id="Laag_2" data-name="Laag 2"><g id="Laag_1-2" data-name="Laag 1"><path class="cls-1" d="M118.22,0H92.84a6.67,6.67,0,0,0-6.27,4.19A6.69,6.69,0,0,0,88,11.58l.76.76-7.24,7.24a5,5,0,0,1-3.44,1.47H47A32.41,32.41,0,0,0,14.64,53.42v15.5A32.41,32.41,0,0,0,47,101.29H70.25a6.37,6.37,0,1,1,0,12.73H45.63v0a38.77,38.77,0,0,0-26.05,11.34L15,129.92l-2.7,2.71-.76-.76a6.7,6.7,0,0,0-4.76-2,7,7,0,0,0-4.7,1.86A6.66,6.66,0,0,0,0,136.67v25.38a6.79,6.79,0,0,0,6.78,6.78H32.16A6.78,6.78,0,0,0,37,157.25l-.76-.76,6.67-6.67a6.93,6.93,0,0,1,4.94-2H78a32.41,32.41,0,0,0,32.37-32.38V99.91A32.41,32.41,0,0,0,78,67.54H54.75a6.37,6.37,0,0,1,0-12.73H78a38.86,38.86,0,0,0,27.42-11.36L110,38.91l2.71-2.71.75.76a6.7,6.7,0,0,0,4.76,2,7,7,0,0,0,4.71-1.86A6.68,6.68,0,0,0,125,32.16V6.78A6.79,6.79,0,0,0,118.22,0Z"></path><path class="cls-1" d="M237.92,81a99.9,99.9,0,0,0-14-5.73c-3.91-1.41-6.93-2.59-9-3.5a15.24,15.24,0,0,1-5-3.46,7,7,0,0,1-1.94-5,7,7,0,0,1,2.15-5.53,8.57,8.57,0,0,1,5.77-1.89,9,9,0,0,1,6.62,2.43A11.55,11.55,0,0,1,225.57,65a.47.47,0,0,0,.47.41h23.19a.46.46,0,0,0,.35-.16.47.47,0,0,0,.13-.36c-.76-8.28-4.13-14.89-10-19.64s-13.88-7.12-23.81-7.12a41.08,41.08,0,0,0-16.43,3.11,26,26,0,0,0-11.29,9,23.9,23.9,0,0,0-4.1,13.94c0,5.76,1.32,10.52,3.91,14.13a26,26,0,0,0,9.33,8.18,112.48,112.48,0,0,0,13.79,5.6c3.8,1.32,6.83,2.48,9,3.43a16.92,16.92,0,0,1,5.3,3.6,7.33,7.33,0,0,1,2.06,5.31,7.47,7.47,0,0,1-2.23,5.67A8.68,8.68,0,0,1,219,112.2a10.6,10.6,0,0,1-7.52-2.76,11.61,11.61,0,0,1-3.42-7.6.48.48,0,0,0-.47-.42H184.79a.48.48,0,0,0-.48.5c.59,8.8,4.2,15.75,10.72,20.66S209.89,130,219.89,130c6.65,0,12.4-1.2,17.08-3.56a25.78,25.78,0,0,0,10.73-9.58,25.08,25.08,0,0,0,3.64-13.16c0-5.84-1.34-10.66-4-14.32A27.24,27.24,0,0,0,237.92,81Z"></path><path class="cls-1" d="M293.87,76.66a11.8,11.8,0,0,1,7.6,2.41,11.57,11.57,0,0,1,4,6.75.47.47,0,0,0,.47.37H328.6A.48.48,0,0,0,329,86a.5.5,0,0,0,.1-.39c-1.6-8.76-5.54-15.76-11.7-20.78h0c-6.17-5-13.9-7.57-23-7.57a38.68,38.68,0,0,0-18.53,4.38,31.15,31.15,0,0,0-12.67,12.61,39.69,39.69,0,0,0-4.51,19.35,39.24,39.24,0,0,0,4.58,19.28,31.57,31.57,0,0,0,12.66,12.67A38.22,38.22,0,0,0,294.37,130c9.1,0,16.84-2.54,23-7.57s10.1-12,11.7-20.78a.5.5,0,0,0-.1-.39.48.48,0,0,0-.37-.17H305.91a.47.47,0,0,0-.47.37,11.6,11.6,0,0,1-4,6.76,11.85,11.85,0,0,1-7.6,2.4,11,11,0,0,1-8.91-4.28c-2.34-2.86-3.53-7.13-3.53-12.67s1.19-9.81,3.53-12.68A11.06,11.06,0,0,1,293.87,76.66Z"></path><path class="cls-1" d="M410,58.16H388.66a.48.48,0,0,0-.48.47V69.26A22.3,22.3,0,0,0,380.39,61a25.94,25.94,0,0,0-14.05-3.71,28.93,28.93,0,0,0-15.74,4.4,30.26,30.26,0,0,0-11,12.61,43.68,43.68,0,0,0-4,19.33,43.76,43.76,0,0,0,4,19.26,30.12,30.12,0,0,0,11,12.67,28.93,28.93,0,0,0,15.74,4.4,25.94,25.94,0,0,0,14.05-3.71,22.28,22.28,0,0,0,7.79-8.26V128.6a.48.48,0,0,0,.48.47H410a.47.47,0,0,0,.48-.47v-70A.47.47,0,0,0,410,58.16Zm-26,47.55a15.28,15.28,0,0,1-21.5.12c-2.7-2.9-4.07-7-4.07-12.21s1.37-9.32,4.07-12.22A14.06,14.06,0,0,1,373.24,77,14.2,14.2,0,0,1,384,81.47c2.78,2.94,4.19,7,4.19,12.15S386.77,102.72,384,105.71Z"></path><rect class="cls-1" x="424.29" y="35.34" width="22.39" height="93.73" rx="0.48"></rect><path class="cls-1" d="M511.13,61.6a41.64,41.64,0,0,0-37.06.06A31.15,31.15,0,0,0,461.4,74.27a39.69,39.69,0,0,0-4.51,19.35,39.24,39.24,0,0,0,4.58,19.28,31.51,31.51,0,0,0,12.66,12.67A38.22,38.22,0,0,0,492.6,130a37.82,37.82,0,0,0,16.12-3.37,32.63,32.63,0,0,0,12-9.28,30.34,30.34,0,0,0,6.12-13.44.5.5,0,0,0-.11-.39.46.46,0,0,0-.36-.17h-22.7a.48.48,0,0,0-.46.35,10.71,10.71,0,0,1-4,5.89,12.33,12.33,0,0,1-7.61,2.28,12.48,12.48,0,0,1-9-3.32c-2.25-2.12-3.54-5.66-3.84-10.52h48a.48.48,0,0,0,.47-.38,30.29,30.29,0,0,0,.63-5.86,36.3,36.3,0,0,0-4.38-18A30.74,30.74,0,0,0,511.13,61.6ZM479,88c.39-4.12,1.8-7.3,4.19-9.45a13.63,13.63,0,0,1,9.46-3.39,13.25,13.25,0,0,1,9.15,3.32c2.34,2.12,3.53,5.32,3.54,9.52Z"></path><path class="cls-1" d="M598,61.68a29,29,0,0,0-15.74-4.4,25.94,25.94,0,0,0-14,3.71,21.7,21.7,0,0,0-7.67,8.2V35.81a.47.47,0,0,0-.48-.47H538.61a.47.47,0,0,0-.47.47V128.6a.47.47,0,0,0,.47.47h21.44a.47.47,0,0,0,.48-.47V118a21.63,21.63,0,0,0,7.67,8.2,25.92,25.92,0,0,0,14,3.71,29,29,0,0,0,15.74-4.4,30.19,30.19,0,0,0,11-12.67,43.76,43.76,0,0,0,4-19.26,43.68,43.68,0,0,0-4-19.33A30.26,30.26,0,0,0,598,61.68ZM586.1,105.83a15.28,15.28,0,0,1-21.5-.12c-2.78-3-4.2-7.06-4.2-12.09s1.42-9.21,4.2-12.15a15.34,15.34,0,0,1,21.5-.07c2.7,2.91,4.07,7,4.07,12.22S588.8,102.93,586.1,105.83Z"></path><path class="cls-1" d="M669.14,57.41a26.87,26.87,0,0,0-14,3.83,30.68,30.68,0,0,0-9.63,9V58.63a.47.47,0,0,0-.48-.47H623.62a.47.47,0,0,0-.47.47v70a.47.47,0,0,0,.47.47h21.44a.47.47,0,0,0,.48-.47V96.75c0-5.58,1.52-9.59,4.52-11.91S657.44,81.3,663,81.3h6.15a.47.47,0,0,0,.47-.47V57.88A.47.47,0,0,0,669.14,57.41Z"></path><path class="cls-1" d="M748.38,58.16H727.06a.47.47,0,0,0-.47.47V69.26a22.33,22.33,0,0,0-7.8-8.27,25.9,25.9,0,0,0-14-3.71A28.91,28.91,0,0,0,689,61.68a30.28,30.28,0,0,0-11,12.61,43.82,43.82,0,0,0-4,19.33,43.9,43.9,0,0,0,4,19.26,30.21,30.21,0,0,0,11,12.67,28.91,28.91,0,0,0,15.74,4.4,25.9,25.9,0,0,0,14-3.71,22.3,22.3,0,0,0,7.8-8.26V128.6a.47.47,0,0,0,.47.47h21.32a.48.48,0,0,0,.48-.47v-70A.48.48,0,0,0,748.38,58.16Zm-26,47.55a15.28,15.28,0,0,1-21.5.12c-2.7-2.9-4.07-7-4.07-12.21s1.37-9.32,4.07-12.22a15.34,15.34,0,0,1,21.5.07c2.79,2.94,4.2,7,4.2,12.15S725.18,102.72,722.39,105.71Z"></path><path class="cls-1" d="M807.56,57.41a26.89,26.89,0,0,0-14.23,3.7,23.59,23.59,0,0,0-8.24,8.4V58.63a.47.47,0,0,0-.47-.47H763.18a.47.47,0,0,0-.48.47v70a.47.47,0,0,0,.48.47h21.44a.47.47,0,0,0,.47-.47V91.49c0-5,1.24-8.82,3.7-11.47a13,13,0,0,1,10-4,12.42,12.42,0,0,1,9.5,3.8c2.37,2.53,3.57,6.11,3.57,10.64V128.6a.47.47,0,0,0,.47.47h21.45a.47.47,0,0,0,.47-.47V88c0-9.43-2.42-17-7.2-22.38S815.69,57.41,807.56,57.41Z"></path><path class="cls-1" d="M918.15,35.34H896.71a.47.47,0,0,0-.48.47V69.19a21.7,21.7,0,0,0-7.67-8.2,25.94,25.94,0,0,0-14-3.71,28.9,28.9,0,0,0-15.73,4.4,30.28,30.28,0,0,0-11,12.61,43.82,43.82,0,0,0-4,19.33,43.9,43.9,0,0,0,4,19.26,30.14,30.14,0,0,0,11,12.67,28.9,28.9,0,0,0,15.73,4.4,25.92,25.92,0,0,0,14-3.71,21.55,21.55,0,0,0,7.67-8.2V128.6a.47.47,0,0,0,.48.47h21.44a.47.47,0,0,0,.47-.47V35.81A.47.47,0,0,0,918.15,35.34Zm-26,70.37a15.28,15.28,0,0,1-21.5.12c-2.7-2.9-4.07-7-4.07-12.21S868,84.3,870.66,81.4a15.34,15.34,0,0,1,21.5.07c2.79,2.94,4.2,7,4.2,12.15S894.94,102.72,892.16,105.71Z"></path><path class="cls-1" d="M943.73,27.19a13.77,13.77,0,0,0-9.6,3.32A11,11,0,0,0,930.46,39a10.79,10.79,0,0,0,3.67,8.31,15.53,15.53,0,0,0,19.19,0A10.79,10.79,0,0,0,957,39a11,11,0,0,0-3.67-8.44A13.77,13.77,0,0,0,943.73,27.19Z"></path><rect class="cls-1" x="932.47" y="58.16" width="22.39" height="70.91" rx="0.48"></rect><path class="cls-1" d="M1013.56,57.41a26.89,26.89,0,0,0-14.23,3.7,23.59,23.59,0,0,0-8.24,8.4V58.63a.47.47,0,0,0-.47-.47H969.18a.47.47,0,0,0-.48.47v70a.47.47,0,0,0,.48.47h21.44a.47.47,0,0,0,.47-.47V91.49c0-5,1.25-8.82,3.7-11.47s5.81-4,10-4a12.41,12.41,0,0,1,9.49,3.8c2.37,2.53,3.57,6.11,3.57,10.64V128.6a.47.47,0,0,0,.48.47h21.44a.47.47,0,0,0,.47-.47V88c0-9.43-2.42-17-7.2-22.38S1021.69,57.41,1013.56,57.41Z"></path><path class="cls-1" d="M1124.15,58.16h-21.32a.47.47,0,0,0-.47.47V69.26a22.33,22.33,0,0,0-7.8-8.27,25.9,25.9,0,0,0-14-3.71,28.91,28.91,0,0,0-15.74,4.4,30.28,30.28,0,0,0-11,12.61,43.82,43.82,0,0,0-4,19.33,43.9,43.9,0,0,0,4,19.26,30.21,30.21,0,0,0,11,12.67,28.91,28.91,0,0,0,15.74,4.4,25.9,25.9,0,0,0,14-3.71,22.3,22.3,0,0,0,7.8-8.26v10.24c0,5.44-1.32,9.43-3.92,11.88a14.68,14.68,0,0,1-10.4,3.7,16.19,16.19,0,0,1-9.08-2.31,10.16,10.16,0,0,1-4.37-6.35.49.49,0,0,0-.47-.37h-21.19a.48.48,0,0,0-.36.16.49.49,0,0,0-.11.38c1.27,8.61,5.15,15.53,11.53,20.56s15,7.56,25.55,7.56c7.74,0,14.32-1.58,19.56-4.71A29.46,29.46,0,0,0,1120.82,146a40.93,40.93,0,0,0,3.81-17.82V58.63A.48.48,0,0,0,1124.15,58.16Zm-26,47.55a15.28,15.28,0,0,1-21.5.12c-2.7-2.9-4.07-7-4.07-12.21s1.37-9.32,4.07-12.22a15.34,15.34,0,0,1,21.5.07c2.79,2.94,4.2,7,4.2,12.15S1101,102.72,1098.16,105.71Z"></path></g></g></svg>